<svg width="1237" height="456" viewBox="0 0 1237 456" fill="none" xmlns="http://www.w3.org/2000/svg">
<g clip-path="url(#clip0_8_38)">
<path d="M1200.4 230.958H1166.11V260.06H1141.54V172.756H1200.4C1228.67 172.756 1237 185.194 1237 201.153V202.326C1237 217.933 1228.46 230.958 1200.4 230.958ZM1166.11 192.587V211.362H1199.98C1207.68 211.362 1211.37 208.194 1211.37 202.209V201.857C1211.37 195.872 1207.89 192.587 1199.98 192.587H1166.11Z" fill="white"/>
<path d="M1100.98 230.958H1066.7V260.06H1042.12V172.756H1100.98C1129.26 172.756 1137.59 185.194 1137.59 201.153V202.326C1137.59 217.933 1129.04 230.958 1100.98 230.958ZM1066.7 192.587V211.362H1100.56C1108.26 211.362 1111.95 208.194 1111.95 202.209V201.857C1111.95 195.872 1108.47 192.587 1100.56 192.587H1066.7Z" fill="white"/>
<path d="M999.083 224.387L983.893 191.648L969.335 224.387H999.083ZM1015.54 260.06L1008.16 244.101H960.58L953.512 260.06H928.511L968.175 172.756H1000.03L1042.02 260.06H1015.54Z" fill="white"/>
<path d="M888.532 261.588H881.253C840.112 261.588 835.365 241.874 835.365 230.375V229.084H860.999C861.315 234.364 864.058 242.93 884.312 242.93H885.789C906.465 242.93 908.785 238.354 908.785 233.66C908.785 228.614 906.359 225.446 888.215 224.859L874.712 224.507C845.386 223.569 836.42 212.538 836.42 198.926V197.87C836.42 184.845 843.382 171.233 879.143 171.233H886.422C923.554 171.233 931.993 185.666 931.993 198.809V199.982H906.465C905.937 196.697 904.355 189.539 883.785 189.539H882.097C863.109 189.539 861.737 193.294 861.737 197.049C861.737 200.804 863.847 204.207 879.881 204.559L893.068 204.794C922.605 205.38 934.525 213.36 934.525 230.727V232.369C934.525 246.803 927.984 261.588 888.532 261.588Z" fill="white"/>
<path d="M755.927 172.756H780.506V238.351H835.044V260.06H755.927V172.756Z" fill="white"/>
<path d="M671.967 172.756H696.546V238.351H751.084V260.06H671.967V172.756Z" fill="white"/>
<path d="M628.93 224.387L613.74 191.648L599.182 224.387H628.93ZM645.386 260.06L638.002 244.101H590.427L583.359 260.06H558.358L598.022 172.756H629.88L671.864 260.06H645.386Z" fill="white"/>
<path d="M463.656 260.06V172.756H530.852C553.322 172.756 559.545 182.378 559.545 192.704V194.347C559.545 205.729 550.895 210.071 547.098 211.362C552.478 212.887 563.976 217.933 563.976 233.305V234.948C563.976 248.677 556.908 260.06 531.485 260.06H463.656ZM526.633 191.179H488.235V205.377H526.633C533.49 205.377 535.177 201.857 535.177 198.337V198.102C535.177 194.464 533.49 191.179 526.633 191.179ZM528.743 223.918H488.235V241.05H528.743C536.865 241.05 538.448 236.004 538.448 232.484V232.014C538.448 228.259 536.865 223.918 528.743 223.918Z" fill="white"/>
<path fill-rule="evenodd" clip-rule="evenodd" d="M434.157 125.269C381.275 189.119 305.2 213.435 263.226 179.499C221.249 145.56 229.098 66.0676 280.47 0.982335C272.917 8.11271 265.643 15.9478 258.771 24.447C204.734 91.2844 196.073 173.882 239.427 208.933C282.781 243.985 361.732 218.217 415.77 151.38C422.636 142.887 428.77 134.14 434.157 125.269Z" fill="#283F99"/>
<path fill-rule="evenodd" clip-rule="evenodd" d="M224.751 455.741C186.512 382.166 193.73 302.612 241.335 277.159C288.932 251.711 359.082 289.874 399.034 362.511C395.409 352.788 391.028 343.047 385.88 333.419C345.355 257.623 272.647 217.488 223.482 243.775C174.317 270.061 167.313 352.816 207.839 428.612C212.993 438.253 218.669 447.317 224.751 455.741Z" fill="#159A51"/>
<path fill-rule="evenodd" clip-rule="evenodd" d="M0.608102 277.772C81.6976 295.194 156.53 267.177 168.477 214.523C180.419 161.894 125.064 104.353 44.458 85.0446C54.7814 85.9676 65.3213 87.6131 75.9556 90.0261C159.774 109.045 217.722 168.538 205.386 222.907C193.049 277.276 115.1 305.933 31.281 286.914C20.6065 284.492 10.3516 281.413 0.608102 277.772Z" fill="#4D3B98"/>
<path d="M351.694 96.4082C356.995 105.867 359.233 116.736 358.1 127.519C356.967 138.302 352.519 148.469 345.368 156.619C330.32 173.777 306.55 178.761 286.498 170.75C303.186 165.621 318.114 155.939 329.601 142.792C341.555 129.161 348.877 113.059 351.694 96.4082ZM321.356 71.922C329.28 74.3522 336.511 78.6335 342.452 84.412C341.608 103.429 334.292 121.587 321.717 135.878C308.657 150.77 291.491 159.927 273.394 163.149C266.891 158.013 261.704 151.404 258.261 143.867C275.235 140.506 290.618 131.619 302.009 118.594C313.879 105.058 320.268 88.5966 321.356 71.922ZM266.533 87.4818C272.01 81.2284 278.896 76.3685 286.624 73.3038C294.351 70.2391 302.696 69.0577 310.971 69.8572C310.283 85.3099 304.34 100.065 294.125 111.68C283.512 123.781 269.563 131.227 254.859 133.84C252.986 125.741 253.068 117.312 255.098 109.251C257.128 101.19 261.048 93.728 266.533 87.4818Z" fill="white"/>
<path d="M96.8759 138.058C67.9669 138.058 44.4475 161.577 44.4475 190.486C44.4475 219.395 67.9669 242.914 96.8759 242.914C125.785 242.914 149.304 219.395 149.304 190.486C149.304 161.577 125.785 138.058 96.8759 138.058ZM54.9332 190.486C54.9332 185.773 55.7511 181.248 57.1929 177.017L65.4189 185.243L75.9045 195.729V206.215L86.3902 216.7L91.6331 221.943V232.067C70.9815 229.472 54.9332 211.835 54.9332 190.486ZM130.063 216.034C126.64 213.277 121.449 211.457 117.847 211.457V206.215C117.847 203.434 116.743 200.766 114.776 198.8C112.81 196.834 110.143 195.729 107.362 195.729H86.3902V180C89.1712 180 91.8383 178.896 93.8047 176.929C95.7712 174.963 96.8759 172.296 96.8759 169.515V164.272H102.119C104.9 164.272 107.567 163.167 109.533 161.201C111.5 159.234 112.604 156.567 112.604 153.786V151.631C127.955 157.865 138.819 172.922 138.819 190.486C138.816 199.738 135.736 208.726 130.063 216.034Z" fill="white"/>
<path fill-rule="evenodd" clip-rule="evenodd" d="M276.959 385.575C305.956 385.575 329.462 362.069 329.462 333.072C329.462 304.076 305.956 280.57 276.959 280.57C247.963 280.57 224.457 304.076 224.457 333.072C224.457 362.069 247.963 385.575 276.959 385.575ZM275.75 356.813H278.12C278.457 356.813 278.789 356.811 279.118 356.807V365.696H288.752V355.904C303.991 353.002 306.966 343.887 306.966 339.356V338.72H292.688C292.671 338.768 292.651 338.829 292.628 338.902C292.176 340.334 290.276 346.35 277.022 346.35C264.478 346.35 261.068 339.645 261.068 334.558V333.864C261.068 328.488 264.016 322.708 276.907 322.708C290.481 322.708 292.266 328.66 292.625 329.858L292.63 329.876H306.908V329.24C306.908 325.035 304.201 316.022 288.752 313.18V303.077H279.118V312.309C278.789 312.305 278.457 312.303 278.12 312.303H275.75C275.259 312.303 274.777 312.308 274.302 312.317V303.077H264.667V313.362C249.279 316.688 246.963 327.089 246.963 333.575V335.252C246.963 341.569 249.617 352.204 264.667 355.678V365.696H274.302V356.797C274.777 356.808 275.259 356.813 275.75 356.813Z" fill="white"/>
</g>
<defs>
<clipPath id="clip0_8_38">
<rect width="1237" height="455.023" fill="white" transform="translate(0 0.488525)"/>
</clipPath>
</defs>
</svg>
